<svg id="Layer_1" data-name="Layer 1" xmlns="http://www.w3.org/2000/svg" xmlns:xlink="http://www.w3.org/1999/xlink" viewBox="0 0 566.93 718.25"><defs><style>.cls-1,.cls-34,.cls-43{fill:none;}.cls-2{font-size:464px;font-family:BrushScriptMT, Brush Script MT;letter-spacing:0em;}.cls-2,.cls-3,.cls-5{fill:#fff;}.cls-2,.cls-3,.cls-34,.cls-43{stroke:#000;}.cls-2,.cls-3,.cls-43{stroke-miterlimit:10;}.cls-4{opacity:0.79;}.cls-6{fill:url(#linear-gradient);}.cls-7{fill:url(#linear-gradient-2);}.cls-8{fill:url(#linear-gradient-3);}.cls-9{fill:url(#linear-gradient-4);}.cls-10{fill:url(#linear-gradient-5);}.cls-11{fill:url(#linear-gradient-6);}.cls-12{fill:url(#linear-gradient-7);}.cls-13{fill:url(#linear-gradient-8);}.cls-14{fill:url(#linear-gradient-9);}.cls-15{fill:url(#linear-gradient-10);}.cls-16{fill:url(#linear-gradient-11);}.cls-17{fill:url(#linear-gradient-12);}.cls-18{fill:url(#linear-gradient-13);}.cls-19{fill:url(#linear-gradient-14);}.cls-20{fill:url(#linear-gradient-15);}.cls-21{fill:url(#linear-gradient-16);}.cls-22{fill:url(#linear-gradient-17);}.cls-23{fill:url(#linear-gradient-18);}.cls-24{fill:url(#linear-gradient-19);}.cls-25{fill:url(#linear-gradient-20);}.cls-26{fill:url(#linear-gradient-21);}.cls-27{fill:url(#linear-gradient-22);}.cls-28{fill:url(#linear-gradient-23);}.cls-29{fill:url(#linear-gradient-24);}.cls-30{fill:#7c13e2;}.cls-31{fill:url(#linear-gradient-25);}.cls-32{fill:url(#linear-gradient-26);}.cls-33{fill:url(#linear-gradient-27);}.cls-34{stroke-linecap:round;stroke-linejoin:round;stroke-width:0.5px;}.cls-35{fill:#17ed00;}.cls-36{fill:#6e12ff;}.cls-37{fill:#ef7700;}.cls-38{fill:#fff80d;}.cls-39{fill:#91908b;}.cls-40{fill:red;}.cls-41{fill:#f739b3;}.cls-42{fill:#b238f9;}</style><linearGradient id="linear-gradient" x1="139.85" y1="218.76" x2="140.02" y2="307.72" gradientUnits="userSpaceOnUse"><stop offset="0" stop-color="#6e12ff"/><stop offset="0.05" stop-color="#6611ec"/><stop offset="0.13" stop-color="#500dba"/><stop offset="0.24" stop-color="#2e086b"/><stop offset="0.39"/><stop offset="0.39" stop-color="#06010e"/><stop offset="0.41" stop-color="#21054d"/><stop offset="0.43" stop-color="#390983"/><stop offset="0.45" stop-color="#4c0cb0"/><stop offset="0.47" stop-color="#5b0fd2"/><stop offset="0.49" stop-color="#6511eb"/><stop offset="0.5" stop-color="#6c12fa"/><stop offset="0.51" stop-color="#6e12ff"/><stop offset="0.57" stop-color="#6511eb"/><stop offset="0.67" stop-color="#4f0db7"/><stop offset="0.83" stop-color="#2b0764"/><stop offset="1"/></linearGradient><linearGradient id="linear-gradient-2" x1="158.47" y1="163.9" x2="158.52" y2="190.39" xlink:href="#linear-gradient"/><linearGradient id="linear-gradient-3" x1="151.15" y1="148.66" x2="151.2" y2="174.3" xlink:href="#linear-gradient"/><linearGradient id="linear-gradient-4" x1="156.72" y1="193.8" x2="156.74" y2="201.64" xlink:href="#linear-gradient"/><linearGradient id="linear-gradient-5" x1="149.39" y1="165.15" x2="149.42" y2="183.68" xlink:href="#linear-gradient"/><linearGradient id="linear-gradient-6" x1="38.66" y1="102.55" x2="156.4" y2="120.97" gradientUnits="userSpaceOnUse"><stop offset="0" stop-color="#fff"/><stop offset="0.01" stop-color="#eef4ff"/><stop offset="0.06" stop-color="#c0d4ff"/><stop offset="0.11" stop-color="#98b9ff"/><stop offset="0.16" stop-color="#78a2ff"/><stop offset="0.21" stop-color="#5f91ff"/><stop offset="0.26" stop-color="#4d85ff"/><stop offset="0.32" stop-color="#427dff"/><stop offset="0.38" stop-color="#3f7bff"/><stop offset="0.39" stop-color="#417bff"/><stop offset="0.55" stop-color="#846dfc"/><stop offset="0.7" stop-color="#b963fa"/><stop offset="0.83" stop-color="#df5bf8"/><stop offset="0.94" stop-color="#f657f7"/><stop offset="1" stop-color="#ff55f7"/></linearGradient><linearGradient id="linear-gradient-7" x1="136.5" y1="101.88" x2="136.58" y2="101.89" xlink:href="#linear-gradient-6"/><linearGradient id="linear-gradient-8" x1="136.5" y1="101.87" x2="136.51" y2="101.87" xlink:href="#linear-gradient-6"/><linearGradient id="linear-gradient-9" x1="112.37" y1="191.65" x2="112.38" y2="198.68" xlink:href="#linear-gradient"/><linearGradient id="linear-gradient-10" x1="112.09" y1="85.91" x2="124.14" y2="86.94" gradientUnits="userSpaceOnUse"><stop offset="0"/><stop offset="0.05" stop-color="#060b17"/><stop offset="0.14" stop-color="#142853"/><stop offset="0.28" stop-color="#2c55b1"/><stop offset="0.39" stop-color="#3f7bff"/><stop offset="0.46" stop-color="#6592d2"/><stop offset="0.56" stop-color="#93ae9d"/><stop offset="0.66" stop-color="#b8c570"/><stop offset="0.76" stop-color="#d6d74e"/><stop offset="0.85" stop-color="#ebe435"/><stop offset="0.93" stop-color="#f8eb26"/><stop offset="1" stop-color="#fcee21"/></linearGradient><linearGradient id="linear-gradient-11" x1="111.88" y1="190.7" x2="111.89" y2="196.57" xlink:href="#linear-gradient"/><linearGradient id="linear-gradient-12" x1="104.77" y1="136.41" x2="104.88" y2="136.43" xlink:href="#linear-gradient-6"/><linearGradient id="linear-gradient-13" x1="95.63" y1="173.32" x2="95.65" y2="182.79" xlink:href="#linear-gradient"/><linearGradient id="linear-gradient-14" x1="73.77" y1="164.93" x2="87.68" y2="167.1" xlink:href="#linear-gradient-6"/><linearGradient id="linear-gradient-15" x1="83.77" y1="123.38" x2="88.82" y2="124.17" xlink:href="#linear-gradient-6"/><linearGradient id="linear-gradient-16" x1="65.85" y1="163.7" x2="73.72" y2="164.93" xlink:href="#linear-gradient-6"/><linearGradient id="linear-gradient-17" x1="64.74" y1="164.78" x2="68.42" y2="165.35" xlink:href="#linear-gradient-6"/><linearGradient id="linear-gradient-18" x1="67.22" y1="126.4" x2="71.37" y2="127.05" xlink:href="#linear-gradient-6"/><linearGradient id="linear-gradient-19" x1="10.88" y1="172.44" x2="67.84" y2="181.35" xlink:href="#linear-gradient-6"/><linearGradient id="linear-gradient-20" x1="65.78" y1="163.22" x2="65.88" y2="163.24" xlink:href="#linear-gradient-6"/><linearGradient id="linear-gradient-21" x1="65.77" y1="163.33" x2="65.79" y2="163.33" xlink:href="#linear-gradient-6"/><linearGradient id="linear-gradient-22" x1="45.13" y1="235.76" x2="56" y2="237.46" xlink:href="#linear-gradient-6"/><linearGradient id="linear-gradient-23" x1="57.68" y1="129.7" x2="63.05" y2="130.54" xlink:href="#linear-gradient-6"/><linearGradient id="linear-gradient-24" x1="42.87" y1="27.82" x2="67.64" y2="31.69" xlink:href="#linear-gradient-6"/><linearGradient id="linear-gradient-25" x1="48.32" y1="160.42" x2="53.62" y2="161.25" xlink:href="#linear-gradient-6"/><linearGradient id="linear-gradient-26" x1="42.59" y1="137.66" x2="46.24" y2="138.23" xlink:href="#linear-gradient-6"/><linearGradient id="linear-gradient-27" x1="16.49" y1="160.48" x2="22.64" y2="161.44" xlink:href="#linear-gradient-6"/></defs><polyline class="cls-1" points="0 0 566.93 0 566.93 626.25 0 626.25"/><text class="cls-2" transform="translate(46.87 560.97) scale(1.09 1)">M</text><rect class="cls-3" x="478.06" y="517.09" width="43.88" height="43.88"/><g class="cls-4"><path d="M319.71,126.32c.07.72-.95,1.6-1.77,2.19a5,5,0,0,1-2.25.3c-14.58.65-29.18,1.14-43.74,2a88.53,88.53,0,0,0-14.63,2.47c-1,.24-1.94,2-2,3.16-.23,3-4.76,5.23-8.31,4a3.94,3.94,0,0,0-2.89.69c-1.72,1.4-2.81,1.05-3.75-.6-1.28-2.27-2.54-4.55-3.9-7,2.57-1,4.43-2.65,4.21-5.37a4.25,4.25,0,0,0-2.5-3.8l2.72-.59c.11.32.23.57.25.69l11.62-1.94c2.62,4,7.09,4.72,12.46,4.47s10.71.51,16,.21c10.74-.61,21.43-1.65,32.15-2.5a14.62,14.62,0,0,1,3.94-.16C318.25,124.79,319.64,125.69,319.71,126.32Z" transform="translate(0 59.32)"/><path d="M292.24,206.89c-1.4,1.14-2.32,2.41-3.71,2.87-1.15.37-2.83-.21-4.28-.36.3-.92.25-2.11,1-2.71C287.13,205.11,289.43,205.15,292.24,206.89Z" transform="translate(0 59.32)"/><path d="M237.4,261.69a21.17,21.17,0,0,1-.62,3.67l-1.53,0a28.06,28.06,0,0,1-.77-3.66c0-.32.87-1,1.24-.92C236.35,260.83,237.4,261.38,237.4,261.69Z" transform="translate(0 59.32)"/><path d="M240.88,123.82l-2.72.59a8.88,8.88,0,0,0-1.33-.48,5.82,5.82,0,0,1-2.28-1.25c-.89-.8-1.5-1.81-2.46-2.54-.16-.13-2.09.63-2.17,1.13-.15,1,.42,2,.76,3.32-3.13,2.31-3.32,3.67-.62,6.9,2.23,2.68,1.5,3.58-2.32,4.66-1.57.46-2.46,2.25-3.86,3.62l-1.85-.69c-3.45,5.29-5.24.13-7.72-1.1a10.69,10.69,0,0,0,3-.77c1-.63,2.44-1.69,2.28-2.42-.54-2.47,2.13-5.69-2.53-7.27-4-1.35-6.58-.45-8.22,2.58a3,3,0,0,1-2.77,1.3,5.39,5.39,0,0,1-3.42-1.32,11.1,11.1,0,0,0-2.5-1.29c.71-.53,1.43-1.06,2.35-1.72.6,1,1,1.56,1.38,2.15.31-.08.58-.08.69-.19,1.28-1.23,2.52-2.48,3.79-3.71.92-.9-1.46-5.13-3.07-5.43-4.18-.77-4.18-.77-6.53-3.71l-.51.57L193.1,114a7.12,7.12,0,0,1,1.42-.31c2.32-.08,3.56-.82,3.78-2.82s4-4.22,6.57-4.11c3.31.15,6.93,2,6.73,4.23-.34,3.57,2.9,4.65,5.57,6.32.51.32.75.93,1.08,1.34,4,0,6.47-2.45,9.74-3.92l-5.14-2.69c2.27-1.14,4.09-2,5.81-2.89,1.85,2.84,3.22,3.13,6.43.77,2.67,1.63,2,5.88,7.48,5.36-.71,2.76-1.38,5-1.81,7.29A2.83,2.83,0,0,0,240.88,123.82Z" transform="translate(0 59.32)"/><path d="M231.32,218.24c.65,2,.22,4.19.23,6.69-6.63-2-8.65-4.1-7.2-7.1.45-.94,2.23-2.29,3-2.11C228.85,216.1,231,217.18,231.32,218.24Z" transform="translate(0 59.32)"/><path d="M221.75,238.09c-1,.8-1.6,1.28-2.21,1.76a8.37,8.37,0,0,1-1.51-2.32c-.11-.46.77-1,1.21-1.55Z" transform="translate(0 59.32)"/><path d="M228.37,174.63c-2,2.88-3.25,3.24-6.31,2s-3.39-3.07-1.42-6.19Z" transform="translate(0 59.32)"/><path d="M224.23,97.18c1.1.2,2,1.36,3.61,2.64-1.91.7-3.1,1.54-4,1.35s-2.16-1.5-2.06-2.16A3.18,3.18,0,0,1,224.23,97.18Z" transform="translate(0 59.32)"/><path d="M221.67,81.11c1.21,1.5,2.48,2.42,2.31,3.06a3.22,3.22,0,0,1-2.57,1.71,3.17,3.17,0,0,1-2.24-2C219.08,83.15,220.4,82.42,221.67,81.11Z" transform="translate(0 59.32)"/><path d="M214.25,144.69c1.25,1.45,1.44,2.81-.45,3.28-2-2.87-3.66-5.62-5.77-8.15-.43-.51-2.48-.27-3.78-.26-1,0-2,.16-3,.24,0-.59-.07-1.2-.1-1.79l0-.62c.36-.35,1-.7,1-1-.15-2,1.05-3.32,3.22-3.67a3.78,3.78,0,0,1,.8-.06c1.81,0,2.9,1.32,3.62,2.73a17,17,0,0,0,1.29,1.88l-1,.07c.14,1.21-.14,2.57.51,3.58C211.4,142.28,213.1,143.37,214.25,144.69Z" transform="translate(0 59.32)"/><path d="M220.17,71.56c.87-.08,2,1.39,3.71,2.66-1.91.92-3.32,2.11-4.18,1.89-1.36-.37-2.35-1.69-3.5-2.61C217.52,72.8,218.75,71.68,220.17,71.56Z" transform="translate(0 59.32)"/><path d="M220.8,66.11c0,.72-1,1.4-2,2.71-1.14-1.36-2.32-2.16-2.22-2.79s1.41-1.4,2.33-1.51C219.42,64.46,220.81,65.56,220.8,66.11Z" transform="translate(0 59.32)"/><path d="M207.83,209.93a9.63,9.63,0,0,1,1.32,2.79,55.75,55.75,0,0,1-3.33,4.74,4.11,4.11,0,0,1-2.23.49c-.94-1.63-2.14-3.3-2.35-5-.08-.76,1.87-1.62,2.95-2.39.18-.13.65,0,1-.05C206.09,210.31,207.66,209.74,207.83,209.93Z" transform="translate(0 59.32)"/><path d="M215.55,91.39c-1.7,2.45-3.92,4.87-8.68,4.64-.86-.7-2.63-1.65-3.4-2.94-.68-1.12-.2-2.64-.72-4.08.94-1.64,2.41-3,5.53-2.23a3.57,3.57,0,0,0,2-.53Z" transform="translate(0 59.32)"/><path d="M197.93,175.39c1.91.08,6.06,3.48,5.14,4.26a17.31,17.31,0,0,1-6.63,3.06c-.55.14-2.13-2-3-2.76C194.5,177.5,194.45,175.24,197.93,175.39Z" transform="translate(0 59.32)"/><path d="M211.62,80c-1.66,1.09-2.63,2.23-3.47,2.15C207,82,206,81,204.94,80.3c1-.85,1.85-2,3.1-2.42C208.51,77.71,209.91,79,211.62,80Z" transform="translate(0 59.32)"/><path d="M201.09,137.39l0,.62c0-.21,0-.42,0-.62Z" transform="translate(0 59.32)"/><path class="cls-5" d="M201.1,137.36v0h0l-.13.05h0Z" transform="translate(0 59.32)"/><path d="M201.08,137.39s0,0,0,0,0,0,0,0Z" transform="translate(0 59.32)"/><path d="M201.08,137.38s0,0,0,0a0,0,0,0,1,0,0H201Z" transform="translate(0 59.32)"/><path class="cls-5" d="M201,137.44s0,0,0,0l-.09,0h.1Z" transform="translate(0 59.32)"/><path d="M201,137.43h0Z" transform="translate(0 59.32)"/><path d="M200.94,137.42h0l-.16,0Z" transform="translate(0 59.32)"/><path d="M200.76,137.39l.16,0-2.14.79c-1.43-2.91,1.78-6.39-2.81-9.11l4.07-.29c0,2.8.05,5.59.12,8.39,0,0,0,0,.09.06l.23.06.27.06Z" transform="translate(0 59.32)"/><path d="M200.48,137.33l.27.06Z" transform="translate(0 59.32)"/><path d="M200.25,137.27l.23.06Z" transform="translate(0 59.32)"/><path class="cls-5" d="M200.17,128.79l0,0h0Z" transform="translate(0 59.32)"/><path class="cls-5" d="M200.17,128.79l0,0-.08-.08Z" transform="translate(0 59.32)"/><path d="M200.12,128.81H200v-.09Z" transform="translate(0 59.32)"/><path d="M183,309.69l-1.69.12c-.21-1.07-.41-2.13-.69-3.55a15.24,15.24,0,0,1-2.46-1.09c-1.27-.83-2.08-1.57-1.86-3.3.77-6,.84-12.1,1.31-18.15.18-2.24,1.06-4.43,1-6.65-.13-3.08-1.28-6.17-1.22-9.23s1-6.37,1.56-9.56c.55-3.36,1-6.74,1.59-10.11.15-.89.44-1.76.68-2.64l1,0a6.46,6.46,0,0,1,.79,2.16c-.09,4.37-.36,8.74-.45,13.11a33.53,33.53,0,0,0,.56,3.38,9.94,9.94,0,0,1,0,3.8,7.53,7.53,0,0,0,.73,6.85,3.21,3.21,0,0,1-1.84,4.75c0,2.21,0,3.91,0,5.59,0,.7-.7,1.58-.35,2,3,3.89.13,8.08,1.75,12.07.67,1.65-.17,3.62-.28,5.45C183,306.34,183,308,183,309.69Z" transform="translate(0 59.32)"/><path d="M192.77,156.15c.91,1.58,1.87,3.14,2.78,4.67-3.58,2.19-3.46,2.11-6.13-.52-1.2-1.19-3.17-1.87-4.48-3-.69-.61-1.21-1.92-.86-2.53s1.88-1.13,2.94-1.18C189.48,153.48,191.62,154.14,192.77,156.15Z" transform="translate(0 59.32)"/><path d="M194.28,131.86a27.82,27.82,0,0,1,.6,5.7c0,.48-2.13.78-3.19,1.15-.61-1.28-1.12-2.33-1.82-3.76l3.5-3.24Z" transform="translate(0 59.32)"/><path d="M187.21,196.78c-1.3.63-2,1.27-2.59,1.18s-1.1-.86-1.64-1.34c.52-.35,1-1,1.57-1S185.88,196.16,187.21,196.78Z" transform="translate(0 59.32)"/><path class="cls-6" d="M181.7,216.26c0,.37-1.63,1.09-2.3,1-2.89-.61-5.7-1.48-8.87-2.34,1.6-3.25-1.56-5.15-4.17-7.26a11.36,11.36,0,0,1-2.23-2.06c-3.2-4.65-8.73-4-13.84-4.14-.62,0-1.48,1.08-1.77,1.78-1.55,3.64-2.8,5.08-5.87,6.76a29.12,29.12,0,0,1-16.29-3.77c-2.66,3.66-2.07,7.08,1.86,10.1-1.81.23-3.86,0-4.8.74s-.94,2.36-1.27,3.61c-1.38,5.21-2.73,10.43-4.09,15.65a36.69,36.69,0,0,0-1,14.9,54.84,54.84,0,0,1-1.38,22.75c-1.38,5.26-1.53,10.8-1.75,16.25-.26,6.3.84,12.77-.21,19s1.26,12.47.59,18.69c-.14,1.37.74,2.93,1.51,4.29,3.16,5.66,1.21,12.62-4.67,16.18-4.51,2.74-7.13,2.13-9.94-1.89-2.54-3.65-1.42-7.05-.16-10.52,0-.09.14-.15.15-.24.39-6.86,6.28-12.92,3.44-20.33-.71-1.82.18-4,.44-6,.29-2.22,1.31-4.48.94-6.66-1-5.6,1.43-10.52,3.31-15.6a9.49,9.49,0,0,0,.1-4c-.25-3.58-.79-7.16-.85-10.74-.07-4.55,2.2-8.92.7-13.61-1-3.23-2.08-6.57-2.07-9.82a15.18,15.18,0,0,1,2.42-8.5,44.6,44.6,0,0,0,7.77-20.92,44.75,44.75,0,0,1,1.08-4.93c1.43-6.18,1.72-12.36-1.22-18.5-.26-.54-1-1-1.45-1.45l-2.57-1,1.55-.19c-2.53-2.17-3.61-2.08-5.75.7l-.05.35a21.57,21.57,0,0,0-2.83-.11c.6,3.34,1.16,6.51,1.76,9.67.18,1,.9,2,.6,2.84-.4,1.13-1.56,2.07-2.39,3.08-1.07-1-2.61-1.82-3.07-2.93s.16-2.61,0-3.92c-.45-4-.48-8.15-1.77-12a28.62,28.62,0,0,0-3.38-6.47l2-.52c.2-.74.4-1.48.61-2.22s.43-1.48.87-3c.45,1.51.43,2.39,1,2.9a4.8,4.8,0,0,0,2.28.34c.59-2.48,3-3.14,5.54-4.06,1.65-.58,2.5-2.48,4.14-4.25,5.78,4.28,11.31,8.58,14.63,14.46-1.58-3.14-.67-6.52-3.37-9.51-1.79-2-2.2-4.86-2.67-7.39-.34-1.87,2-2.47,4.65-1.6s5.45,1.51,8.19,2.26c.12-.28.25-.55.38-.83l-4.32-1.53,2.16-1.71-1-.13c0-1.46-.83-3.37,0-4.27,2-2.13,4.75-1,7.17.66l1.06,1.12c3.77,2.17,2.47,5.27,2.76,8.22a22.48,22.48,0,0,0,2.27,8.46c.88,1.67,3.41,2.91,5.43,4.09.48.28,1.9-.49,2.9-.76.78-.21,1.56-.39,2.81-.69-1,1.32-2.5,2.29-2.35,3.14.17,1.05,1.52,2.13,2.62,3a5.18,5.18,0,0,0,2.62.55c.87,0,1.74-.33,2.61-.3,1.77.06,3.53.28,6,.48-1.93,3,1,4.09,3.08,5.73a32.29,32.29,0,0,1,5.13,5.67c1.55,2,3.33,4,4.09,6.18S181.74,213.84,181.7,216.26Zm-27.34-18.71c.41,3,1.3,3.49,5.91,2.76-2.07-2.6-4-5-5.93-7.49l-1.1.32a8.5,8.5,0,0,0,0,2.2C153.49,196.1,154.25,196.81,154.36,197.55Z" transform="translate(0 59.32)"/><path d="M177.18,123.15c5,.63,9,4.86,8.33,8.76-.62,3.6-5.52,6.27-10.12,5.53-2.7-.44-7.44-4.88-7.17-6.71C168.91,126.26,173.17,122.64,177.18,123.15Z" transform="translate(0 59.32)"/><path d="M180.89,168c-4.32-.17-5.24-1.56-2.9-4.9Z" transform="translate(0 59.32)"/><path class="cls-7" d="M170.73,184.58c-.36.43-.51.71-.58.71-4.1-.89-8.42-.28-12.52-1.37a13,13,0,0,1-1.79-.6c-2.27-.93-4.07-1.83-4.21-4.08a3.71,3.71,0,0,0-1.3-2.69,9.07,9.07,0,0,1-4.06-8.49l5.29,5.61c1.69-1,3.38-1.94,5.8-3.31l-.85-.19,2.45-.06c6.42,1.73,10.1,4.68,10.3,10l-3.07,2.29Z" transform="translate(0 59.32)"/><path d="M171.33,156.41a73.69,73.69,0,0,1-7,2.57c-.26.08-2-1.83-1.81-2a12.24,12.24,0,0,1,4.27-3.22C167.37,153.49,169.15,155.07,171.33,156.41Z" transform="translate(0 59.32)"/><path d="M160.83,212.17c-.77.55-1.47,1.42-2.37,1.55-.62.09-1.53-.83-3.08-1.77,1.61-.74,2.53-1.51,3.38-1.44S160.14,211.58,160.83,212.17Z" transform="translate(0 59.32)"/><path d="M165.36,140.78c.75-.06,1.75,1.31,3.45,2.69-2.11.9-3.7,2.1-4.51,1.81-1.38-.48-2.27-1.9-3.36-2.93C162.4,141.79,163.82,140.91,165.36,140.78Z" transform="translate(0 59.32)"/><path class="cls-8" d="M163.38,163.87c.1,2.08-1,5-5.73,5.91.45.1.89.22,1.31.33l-2.45.06c-4.18-.92-8-1.59-9-4.88l-6.28,0-1.06-1.12c.3-1.44.55-2.56.69-3.25L139,158a9.69,9.69,0,0,0,2.84-.71c1.4-.9,3.54-.45,4.64-2.22,2-3.27,6.36-3.46,10.17-1.19C160.94,156.45,163.21,160.05,163.38,163.87Z" transform="translate(0 59.32)"/><path class="cls-9" d="M160.27,200.31c-4.61.73-5.5.2-5.91-2.76-.11-.74-.87-1.45-1.07-2.21a8.5,8.5,0,0,1,0-2.2l1.1-.32C156.28,195.27,158.2,197.71,160.27,200.31Z" transform="translate(0 59.32)"/><path d="M162.51,136.22c-.26.52-.54,1.05-.81,1.58-1.78-.6-3.56-1.18-5.28-1.88a17.26,17.26,0,0,1,.79-1.69Z" transform="translate(0 59.32)"/><path class="cls-10" d="M157.63,183.92l-.28.67c-1.25.3-2,.48-2.81.69-1,.27-2.42,1-2.9.76-2-1.18-4.55-2.42-5.43-4.09a22.48,22.48,0,0,1-2.27-8.46c-.29-3,1-6.05-2.76-8.22l6.28,0c1,3.29,4.87,4,9,4.88l.85.19c-2.42,1.37-4.11,2.34-5.8,3.31l-5.29-5.61a9.07,9.07,0,0,0,4.06,8.49,3.71,3.71,0,0,1,1.3,2.69c.14,2.25,1.94,3.15,4.21,4.08A13,13,0,0,0,157.63,183.92Z" transform="translate(0 59.32)"/><path d="M164.86,104.9l-1.24,1.66c-1.42-.36-2.64-.58-3.76-1-.62-.23-1.48-.76-1.5-1.16a2,2,0,0,1,1-1.71,3.72,3.72,0,0,1,2.42.17A23,23,0,0,1,164.86,104.9Z" transform="translate(0 59.32)"/><path d="M160.13,21.29l5.08.43c-.45,1.17-.91,2.34-1.66,4.27C162.17,24.09,161.39,23,160.13,21.29Z" transform="translate(0 59.32)"/><path d="M154.26,142.21c.46-.06,1.3,1.31,2,2l-3.05,1.65-2.32-2.21A12,12,0,0,1,154.26,142.21Z" transform="translate(0 59.32)"/><path d="M165.93,34.64c-2.19,1.06-5.58,1-6,3.82a3.19,3.19,0,0,1-2,.1,21,21,0,0,1-3.71-3c-.25-.26.37-1.52.74-1.56C158.58,33.7,162.14,31.71,165.93,34.64Z" transform="translate(0 59.32)"/><path d="M156.3,95.58c-.46,1.43-.94,2.85-1.41,4.27l-.72-.1.38-4.44Z" transform="translate(0 59.32)"/><path class="cls-11" d="M81.44,143.86a.89.89,0,0,0,.17.17l3.21,2.49c-.83.33-1.7,1-2.47.92-2.08-.23-5.29-.34-5.93-1.32-1.89-2.89-4.15-2.86-7.22-2-.82.22-1.93-.2-2.81-.05a15.46,15.46,0,0,0-2.83,1c.43.67.67,1.7,1.35,1.94,2.27.82,4.7,1.37,7.07,2,.83.23,1.69.39,2.35.53,1.56,4.21-2.48,5.27-5.58,7.23a5.18,5.18,0,0,1-.22-1.27c.15-1.2,3-2.19.49-3.57a28.88,28.88,0,0,0-4.63-1.53c-.83-.26-1.66-.55-2.49-.82l-2.12-.7c-2.82-.95-5.63-1.9-8.49-2.77a2.79,2.79,0,0,0-1.88.49c0,.52.05,1.16.15,1.73l-2,.08c-.32-2.21-1.62-3.91-4.14-5.35-1.81-1-2.85-2.88-4.33-4.31-.79-.75-1.77-1.38-3.08-2.39.36-1.21,1.28-2.87,1.24-4.55,0-1.4-1.25-2.82-2.09-4.54l2.19-.74c-.33-.63-.66-1.26-1-2,2.62-.88,5-2.52,7.53.25A2.92,2.92,0,0,0,46,125c3.13-1,5.69-.58,8,2.12-2.37-2.88-1.16-5.09.24-7.42.42-.7-.3-2-.74-2.89a4.23,4.23,0,0,1,1-5.42,7.15,7.15,0,0,1,1.35,1c2.25,3.3,3.87,3.89,8,2.47.85-.29,1.35-1.4,1.75-2.22,1.61-3.32,4.28-4,8.55-2-.34.48-.87.94-1,1.47a1.48,1.48,0,0,0,.58,1.35,2.44,2.44,0,0,0,1.82.07,1.51,1.51,0,0,0,.56-1.33,15.78,15.78,0,0,0-.64-4.08,3.18,3.18,0,0,0-1.91-1.78,34.65,34.65,0,0,0-8-1.37c-3.09,0-6.11.88-9.22,1.09-3.72.23-4.95-1-4.29-3.84.49-2.12.79-4.26-1.32-6a21.38,21.38,0,0,0-3.55-1.8l.48-1.21L45,92.26l.66-.37c-.78-1-1.54-2-2.64-3.52.62-2.37,1.43-5.38,2.12-8a27.49,27.49,0,0,0,3.61-2.6c1.83-1.83,7.89-3,11-2,3.57,1.18,6.08-.17,5.6-3.15a115.31,115.31,0,0,0-2.59-13.71c-.12-.42-.26-.84-.43-1.27l2.82-.39c1.61,4.46,3.79,8.79,3.53,13.52a6.78,6.78,0,0,0,1.1,3.32c1.7,3,3.4,6.09,5.38,9a27.11,27.11,0,0,0,5,5.77,10.24,10.24,0,0,0,12.9.27,4.43,4.43,0,0,0,1.21-2.81c.94-6.32,1.77-12.66,2.64-19l1,.06c.07.55.35,1.15.18,1.64-2,5.5.92,10.52,3.61,15.42.61,1.08,3.67,1.57,5.69,1.93.64.11,1.82-1,2.37-1.68,1.53-2,2.87-4.11,4.29-6.17l.72.34c-.86,2.16-1.81,4.29-2.5,6.48a5.27,5.27,0,0,0,.3,2.63c.33,1.27.77,2.52,1.41,4.57L122.51,96c.89-3.52,3-6.94-1.24-10.41-1.8-1.48-1.36-5.77-.21-7.88.07-.13.15-.25.22-.36a10.28,10.28,0,0,1,9.38-4.7c2.66.06,5.33.86,8,1.31.86.15,1.72.26,2.82.43-2.76,2.17.56,4.48.87,6.92.12.85.64,2,.16,2.51-1.17,1.21-1,2.18-.37,3.55.28.64-.9,1.65-1.6,2.79-1-.85-1.61-1.33-2-1.64-2.16.67-4.13,1.75-6.18,1.79-2.51,0-2.73,1-3.3,2.47a62,62,0,0,1-3.47,6.38l2.65-.52q.21.33.39.66a13.72,13.72,0,0,0-3,1.31c-1,.78-2.2,1.81-2.22,2.78-.06,2.25,2.18,3.52,4.64,4.12.8.19,2-.73,3-1.2.22-.1.34-.63.4-.62,4.38,1,3.37-2.46,5-3.7a13.72,13.72,0,0,0-.3,3.81,9.56,9.56,0,0,0,1.69,4.21,27.83,27.83,0,0,0,5,4.85,4.64,4.64,0,0,0,3.41.38c3.27-1.17,6.36-2.63,9.76-3.68-2.29,1.42-5,2.55-6.7,4.34s-1.94,4-2.68,6.15c-.08.25.87.91,1.48,1.15,2.54,1,2.77,2,1,3.76a6,6,0,0,0-1.54,2.49c-.45,1.7-.44,3.33,2.88,2.94.47-.05,1.07.39,2.59,1l-16.71,4.76c1.63,1,2.85,1.44,3,2a3.39,3.39,0,0,1-.24,3c-.34.41-2.84.35-3.36-.15-1.57-1.51-2.72-.8-4-.08-2.19,1.25-4.05,3.51-7.34,1-.27-.19-1.45.4-2.21.62-2,.56-3.81.56-4.81-1.25s-.51-3.37,1.72-3.93c1.84-.47,4-.21,6.33-.29,0-.41.22-1.6-.36-2-3-2.05-3.24-4.19-1.67-6.79.36-.6-.13-1.67-.59-2.4a2.73,2.73,0,0,0-2-.19,8,8,0,0,0-1.77,2.63,5.29,5.29,0,0,0-.06,2c-.42-.06-1.18-.08-1.2-.19a18.44,18.44,0,0,1-.34-2.54L116,132.17c-.59-1.78-1-3-1.37-4.16-.29-.87-.34-2.16-1.06-2.48-.89-.41-2.35,0-3.58,0,1.44,2.75,2.68,5,3.8,7.34.19.4,0,1.31-.27,1.34-1.27.19-2.59.2-4.15.28-1.54,3.29-1.54,3.3-4.52,1.89-1.46-1.88-2.94-3.75-4.37-5.63-1.83-2.43-3.31-4.92-2.43-7.8.13-.39.13-1-.15-1.23-4-2.5-3.76-6.12-4.58-9.46-.18-.7-.18-1.6-.73-2a27,27,0,0,0-3.79-2.09c-.38,1.06-1.43,2.29-1,3.16,2.52,5.54,2.83,11.53,6.42,16.84.21.3.23.67-.36.73a22.54,22.54,0,0,0-2.36,2.9c-.19.32.52,1,.82,1.49l2.87-1.2c-.14,0,.15,0,.24.08,1.9,2.33,1.78,3.45.38,5.88s-3.43,2.41-6,1.42c-2.43-.94-4.81-2-7.44-3l-.84-.35,1.25-1.85-8.89-5.84-.92.72c1.41,3.8,5.59,5.87,8.87,8.15a21,21,0,0,1,2.09,1.62l-2.34,5.07S81.45,143.86,81.44,143.86ZM88.87,123l-1.26-1.16-4,2.54L85,125.71Zm-17.55,4.07c.15-.14-.89-1.1-1.8-2.17a13.49,13.49,0,0,0-2.4,2.27c-.12.2,1.21,1.36,1.55,1.28A6.23,6.23,0,0,0,71.32,127.08ZM61.75,132,63,130.65l-3.8-2.39-1.58,1.62Zm-15.54,6.25-1.49-1.66-2.22,1.61c.5.37,1.1,1.09,1.48,1A8.22,8.22,0,0,0,46.21,138.26Z" transform="translate(0 59.32)"/><path d="M139.22,99.06c.42,1.31.83,2.63,1.24,4-.32.1-.65.2-1,.32l-2.89-1.48h0l.15-.19Z" transform="translate(0 59.32)"/><path d="M133.1,149.7c0,1.3.05,2.75.07,3.8-2,.25-3.68.73-5.23.56-1.09-.13-2.07-1.14-3.09-1.76.69-.72,1.21-1.84,2.12-2.06A38.78,38.78,0,0,1,133.1,149.7Z" transform="translate(0 59.32)"/><path d="M136.6,101.85s0,0,0,0,0,0,0,0Z" transform="translate(0 59.32)"/><path class="cls-12" d="M136.54,101.83s0,0,0,0l-.08.06s0-.09,0-.12h0A0,0,0,0,1,136.54,101.83Z" transform="translate(0 59.32)"/><path class="cls-13" d="M136.52,101.81h0s0,.08,0,.12v-.13Z" transform="translate(0 59.32)"/><path d="M129.49,164.26c.11.34-1.73,1.45-2,1.31a5.93,5.93,0,0,1-2.7-2.21c-.23-.44,1-1.31,2.26-2.7C128.25,162.34,129.18,163.25,129.49,164.26Z" transform="translate(0 59.32)"/><path class="cls-14" d="M113.21,193.56l2.57,1a13.71,13.71,0,0,1-1,1.61c-.59.69-1.29,1.31-2,2-.58-.56-1.6-1.1-1.68-1.68a2.19,2.19,0,0,0-2.16-2.07l.05-.35Z" transform="translate(0 59.32)"/><path d="M124.62,61.2c.54.47,1.31,1.41,1.09,1.71a34.07,34.07,0,0,1-3.64,3.51L119.92,66a10.9,10.9,0,0,1,3-4.41A2.31,2.31,0,0,1,124.62,61.2Z" transform="translate(0 59.32)"/><path d="M117.77,132.24c.81,1,1.76,1.62,1.61,2-.21.61-1.16,1-1.8,1.55-.62-.53-1.71-1.07-1.74-1.6S116.84,133.12,117.77,132.24Z" transform="translate(0 59.32)"/><path class="cls-15" d="M121.27,85.54c4.24,3.47,2.13,6.89,1.24,10.41l-8.62-3.36c-.64-2-1.08-3.3-1.41-4.57a5.27,5.27,0,0,1-.3-2.63c.69-2.19,1.64-4.32,2.5-6.48l-.72-.34,2-.51,1.24.42a3.24,3.24,0,0,0,1.23-1.17l2.61.35C119.91,79.77,119.47,84.06,121.27,85.54Z" transform="translate(0 59.32)"/><path class="cls-16" d="M114.76,193.37l-1.55.19-4.2.51C111.15,191.29,112.23,191.2,114.76,193.37Z" transform="translate(0 59.32)"/><path d="M122.07,66.42c1.4,1.71-.43,3-3.08,4.64a16.82,16.82,0,0,1,.93-5.1Z" transform="translate(0 59.32)"/><path d="M119,73.81a7.32,7.32,0,0,1-.59,3.5,3.24,3.24,0,0,1-1.23,1.17L116,78.06c.75-1.5,1.51-3,2.26-4.51Z" transform="translate(0 59.32)"/><path class="cls-17" d="M104.8,136.37a.61.61,0,0,0,.07.1l-.1-.11Z" transform="translate(0 59.32)"/><path d="M104.77,136.36l.1.11-.13,0A.32.32,0,0,0,104.77,136.36Z" transform="translate(0 59.32)"/><path d="M104.74,136.45c-.21.85-.44,1.7-.66,2.56a11.49,11.49,0,0,1-3.19-1c-.41-.29,0-1.37.12-2.1C102.26,136.09,103.5,136.26,104.74,136.45Z" transform="translate(0 59.32)"/><path class="cls-18" d="M99.84,184l-2,.52c-.81-1.27-1.66-2.53-2.45-3.79a3.91,3.91,0,0,0-2.31-1.15C91,179.22,90.77,178,91.55,177a43,43,0,0,1,4.68-4.38C102.54,175.84,99.14,180.11,99.84,184Z" transform="translate(0 59.32)"/><path class="cls-19" d="M87.42,165.46c.16,0,.28,1.37-.08,1.59a5.65,5.65,0,0,1-5,.85,34.19,34.19,0,0,0-8.84-1.26l0-.39c2.6-.44,5.9-1.12,9.28-1.47A15.71,15.71,0,0,1,87.42,165.46Z" transform="translate(0 59.32)"/><path class="cls-20" d="M87.61,121.85,88.87,123,85,125.71l-1.42-1.32Z" transform="translate(0 59.32)"/><path d="M92.64,57.94c2.52,5.56-.93,10.57-1.54,15.84C89.76,68.32,91.8,63.19,92.64,57.94Z" transform="translate(0 59.32)"/><path d="M82.29,156.83l.82,1.58c-1.7.42-3.39.84-5.1,1.2a4.74,4.74,0,0,1-.55-1C79,158,80.67,157.4,82.29,156.83Z" transform="translate(0 59.32)"/><path class="cls-21" d="M73.45,166.25l0,.39a59,59,0,0,0-7.27.38l-.11-.46A13.54,13.54,0,0,0,68.42,165c-.89-.57-1.76-1.13-2.64-1.68h0c2.22-1,4.18-2.56,7.65-1.67L71,163.59Z" transform="translate(0 59.32)"/><path class="cls-22" d="M65.78,163.34c.88.55,1.75,1.11,2.64,1.68a13.54,13.54,0,0,1-2.32,1.54,2.69,2.69,0,0,1-1.49-.73A15.62,15.62,0,0,1,65.78,163.34Z" transform="translate(0 59.32)"/><path class="cls-23" d="M69.52,124.91c.91,1.07,2,2,1.8,2.17a6.23,6.23,0,0,1-2.65,1.38c-.34.08-1.67-1.08-1.55-1.28A13.49,13.49,0,0,1,69.52,124.91Z" transform="translate(0 59.32)"/><path d="M71.08,174.63c-1.76.71-3.5,1.47-5.31,2.11a6.09,6.09,0,0,1-1.78.07,4.14,4.14,0,0,1,0-1.61c.23-.54.87-.95,1.22-1.48C66.78,171.32,67.22,171.27,71.08,174.63Z" transform="translate(0 59.32)"/><path class="cls-24" d="M66.49,156.89c.84.81,1.71,1.63,2.61,2.48l-10.57,5,7.35-1.28-.11.2h0a15.62,15.62,0,0,0-1.17,2.49,2.69,2.69,0,0,0,1.49.73l.11.46-.81.09c-1.15.14-2.55-.33-3.55,0-2.07.68-4,1.51-4.11,3.81a58.62,58.62,0,0,1-1.2,7.39,4,4,0,0,0-.07.78c.51,4.82,1.67,9.69,1.42,14.47L55,193.37v-.06c-.19-7.49-.39-15-.58-22.57-5.18.5-11.61,7.68-11.2,12.42.14,1.75.8,3.52-1.8,4.86-1.63.84-.28,2.37,2.66,3,3.07,8.13-.94,12.87-7.35,15.62-3.15,1.34-6.5,2.61-10.09.83s-3.28-4.49-3-6.59c-1.53-1.11-3.71-2-3.64-2.74.22-2,2.19-2.55,4.72-2.13a3.13,3.13,0,0,0,2.26-.53c6.17-6.08,12.92-11.89,15.24-19.87a63.48,63.48,0,0,0,1.52-6.45c.32-1.85-1.07-2.83-3.21-2.48-2.65.44-5.57.86-7.7,2-4.69,2.56-8.87,5.66-13.42,8.37-2.81,1.67-5.92,3-8.9,4.52l-1.2-.81a8,8,0,0,1,1-2.65A10,10,0,0,1,13,176.24c5-2.91,10.11-5.74,15.05-8.71a14.6,14.6,0,0,0,3.7-3.26c.95-1.2,2.15-2.63.09-4s-4.3-1.83-6.45-.51c-1,.6-1.91,1.27-2.83,2L21,160.15a5.22,5.22,0,0,0,1.05-.38c-.1-5,4.91-8.22,6.51-12.64.51-1.42,2-2.58,3.47-4.32a14.46,14.46,0,0,1,1.51,1.82c.22.36-.09.88,0,1.31.25,1.14.56,2.29.85,3.44l4.07-2.5a9.22,9.22,0,0,1,6.88,2.62,6,6,0,0,0,1.86.83,4.61,4.61,0,0,0,.43-1.57c0-.15,0-.3-.05-.44l2-.08a1.85,1.85,0,0,0,.69,1.34A57.73,57.73,0,0,0,57.34,153L59.18,150C61.61,152.27,64,154.49,66.49,156.89ZM53.34,162c.11-.53.2-1.07.31-1.61l-5.06-1.12c-.15.76-.28,1.52-.43,2.28Z" transform="translate(0 59.32)"/><path class="cls-25" d="M65.88,163.13a1.21,1.21,0,0,0-.09.2h0Z" transform="translate(0 59.32)"/><path class="cls-26" d="M65.79,163.33h0Z" transform="translate(0 59.32)"/><path class="cls-27" d="M53.49,260.81c.44,5.9-1.39,11.85-2.51,17.73-.15.77-2.17,1.62-3.47,1.75a4.33,4.33,0,0,1-3.21-1.44c-1.42-2.44-2.51-4.77-2.29-7.76a99.61,99.61,0,0,1,4.06-20.21,62.35,62.35,0,0,0,1.18-7.56,30.78,30.78,0,0,0,1.24-5.12c.57-7.12.69-14.27,1.49-21.36.55-4.7,2-9.32,3-14,.66-3,1.28-6,1.92-9a4.61,4.61,0,0,0,.13-.46l2.87.17a.65.65,0,0,1,0,.14c-.6,10.56-1.29,21.16-3.14,31.57C52.65,237.07,52.61,248.85,53.49,260.81Z" transform="translate(0 59.32)"/><path class="cls-28" d="M63,130.65,61.75,132l-4.16-2.13,1.58-1.62Z" transform="translate(0 59.32)"/><path class="cls-29" d="M65.12,57.27l-2.82.39c-1.11-2.95-2.94-5.78-4.2-8.71a32.89,32.89,0,0,1-2.44-7.44,15.55,15.55,0,0,0-5.13-9.75c-2.39-2.1-2.65-4.37-2-7.16s-.07-5.75-.77-8.56c-.76-3-2.42-6-3.21-9a4.46,4.46,0,0,1,1.11-3.83c1.8-1.92,4.31-1.68,5.4.59a69.24,69.24,0,0,1,4.05,10.74C56.34,18.81,57.5,23,61,26.72c1.23,1.33,1.4,3.33,1.76,5.05.9,4.19,1.74,8.39,2.35,12.59a37.44,37.44,0,0,1-.07,5.7C65,52.47,64.31,55,65.12,57.27Z" transform="translate(0 59.32)"/><path class="cls-30" d="M53.41,180.41c-.06,1.83-1.87,2.83-4.09,2.48-1-.15-2.57-1.8-2.34-2.23.59-1.16,2-2,3.73-3.55C52.08,178.71,53.43,179.6,53.41,180.41Z" transform="translate(0 59.32)"/><path class="cls-31" d="M53.65,160.41c-.11.54-.2,1.08-.31,1.61l-5.18-.45c.15-.76.28-1.52.43-2.28Z" transform="translate(0 59.32)"/><path class="cls-32" d="M44.72,136.6l1.49,1.66a8.22,8.22,0,0,1-2.23,1c-.38.05-1-.67-1.48-1Z" transform="translate(0 59.32)"/><path d="M48.06,63.12c3.3,1.19.62,3,.76,5-2.35-1.2-5.56-1.17-5.09-3.65C43.86,63.79,47,62.73,48.06,63.12Z" transform="translate(0 59.32)"/><path class="cls-30" d="M38.08,177c.31.68,1.06,1.77.77,2a6.13,6.13,0,0,1-3.28,1.32c-.88,0-1.91-.88-2.71-1.5a6,6,0,0,1-1.8-2.05c-.48-1.12-1.32-3-.74-3.37a10.65,10.65,0,0,1,5.39-1.55c.8,0,1.71,1.79,2.58,2.75l-1.14.48C37.46,175.68,37.79,176.32,38.08,177Z" transform="translate(0 59.32)"/><path d="M28.4,187.39c-2.76.81-4.81.55-6.36-1-.21-.19.74-1.53,1.5-1.84C26.91,183.23,26.69,186,28.4,187.39Z" transform="translate(0 59.32)"/><path d="M32.53,83.82c-1.13,2.07-2.31,2.28-4,1-1.89-1.4-4-2.61-5.76-4.12-.56-.48-.19-1.62-.25-2.47.87,0,2.05-.23,2.57.12C27.67,80.13,30.14,82.05,32.53,83.82Z" transform="translate(0 59.32)"/><path class="cls-33" d="M21,160.15l1.61,1.54c-.92.69-1.83,1.39-2.75,2.05a16,16,0,0,1-1.57.87c-3-2.26-2.53-4.23,1.71-7.45Z" transform="translate(0 59.32)"/><path class="cls-34" d="M81.44,143.86a.89.89,0,0,0,.17.17l3.21,2.49c-.83.33-1.7,1-2.47.92-2.08-.23-5.29-.34-5.93-1.32-1.89-2.89-4.15-2.86-7.22-2-.82.22-1.93-.2-2.81-.05a15.46,15.46,0,0,0-2.83,1c.43.67.67,1.7,1.35,1.94,2.27.82,4.7,1.37,7.07,2,.83.23,1.69.39,2.35.53,1.56,4.21-2.48,5.27-5.58,7.23a5.18,5.18,0,0,1-.22-1.27c.15-1.2,3-2.19.49-3.57a28.88,28.88,0,0,0-4.63-1.53c-.83-.26-1.66-.55-2.49-.82l-2.12-.7c-2.82-.95-5.63-1.9-8.49-2.77a2.79,2.79,0,0,0-1.88.49c0,.52.05,1.16.15,1.73a1.85,1.85,0,0,0,.69,1.34A57.73,57.73,0,0,0,57.34,153L59.18,150c2.43,2.32,4.77,4.54,7.31,6.94.84.81,1.71,1.63,2.61,2.48l-10.57,5,7.35-1.28" transform="translate(0 59.32)"/><path class="cls-34" d="M104.87,136.47a.61.61,0,0,1-.07-.1c-1.46-1.88-2.94-3.75-4.37-5.63-1.83-2.43-3.31-4.92-2.43-7.8.13-.39.13-1-.15-1.23-4-2.5-3.76-6.12-4.58-9.46-.18-.7-.18-1.6-.73-2a27,27,0,0,0-3.79-2.09c-.38,1.06-1.43,2.29-1,3.16,2.52,5.54,2.83,11.53,6.42,16.84.21.3.23.67-.36.73a22.54,22.54,0,0,0-2.36,2.9c-.19.32.52,1,.82,1.49l2.87-1.2c-.14,0,.15,0,.24.08,1.9,2.33,1.78,3.45.38,5.88s-3.43,2.41-6,1.42c-2.43-.94-4.81-2-7.44-3l-.84-.35,1.25-1.85-8.89-5.84-.92.72c1.41,3.8,5.59,5.87,8.87,8.15a21,21,0,0,1,2.09,1.62l-2.34,5.07s0,0,0,0h0" transform="translate(0 59.32)"/><path class="cls-34" d="M136.5,101.94a13.72,13.72,0,0,0-.3,3.81,9.56,9.56,0,0,0,1.69,4.21,27.83,27.83,0,0,0,5,4.85,4.64,4.64,0,0,0,3.41.38c3.27-1.17,6.36-2.63,9.76-3.68-2.29,1.42-5,2.55-6.7,4.34s-1.94,4-2.68,6.15c-.08.25.87.91,1.48,1.15,2.54,1,2.77,2,1,3.76a6,6,0,0,0-1.54,2.49c-.45,1.7-.44,3.33,2.88,2.94.47-.05,1.07.39,2.59,1l-16.71,4.76c1.63,1,2.85,1.44,3,2a3.39,3.39,0,0,1-.24,3c-.34.41-2.84.35-3.36-.15-1.57-1.51-2.72-.8-4-.08-2.19,1.25-4.05,3.51-7.34,1-.27-.19-1.45.4-2.21.62-2,.56-3.81.56-4.81-1.25s-.51-3.37,1.72-3.93c1.84-.47,4-.21,6.33-.29,0-.41.22-1.6-.36-2-3-2.05-3.24-4.19-1.67-6.79.36-.6-.13-1.67-.59-2.4a2.73,2.73,0,0,0-2-.19,8,8,0,0,0-1.77,2.63,5.29,5.29,0,0,0-.06,2c-.42-.06-1.18-.08-1.2-.19a18.44,18.44,0,0,1-.34-2.54L116,132.17c-.59-1.78-1-3-1.37-4.16-.29-.87-.34-2.16-1.06-2.48-.89-.41-2.35,0-3.58,0,1.44,2.75,2.68,5,3.8,7.34.19.4,0,1.31-.27,1.34-1.27.19-2.59.2-4.15.28-1.54,3.29-1.54,3.3-4.52,1.89h0" transform="translate(0 59.32)"/><path class="cls-34" d="M136.51,101.8h0v.13" transform="translate(0 59.32)"/><path class="cls-34" d="M136.5,101.94l.08-.06" transform="translate(0 59.32)"/><line class="cls-34" x1="136.5" y1="161.26" x2="136.5" y2="161.26"/><path class="cls-34" d="M65.77,163.33h0c2.22-1,4.18-2.56,7.65-1.67L71,163.59l2.46,2.66c2.6-.44,5.9-1.12,9.28-1.47a15.71,15.71,0,0,1,4.69.68c.16,0,.28,1.37-.08,1.59a5.65,5.65,0,0,1-5,.85,34.19,34.19,0,0,0-8.84-1.26,59,59,0,0,0-7.27.38l-.81.09c-1.15.14-2.55-.33-3.55,0-2.07.68-4,1.51-4.11,3.81a58.62,58.62,0,0,1-1.2,7.39,4,4,0,0,0-.07.78c.51,4.82,1.67,9.69,1.42,14.47a.65.65,0,0,1,0,.14c-.6,10.56-1.29,21.16-3.14,31.57-2.1,11.82-2.14,23.6-1.26,35.56.44,5.9-1.39,11.85-2.51,17.73-.15.77-2.17,1.62-3.47,1.75a4.33,4.33,0,0,1-3.21-1.44c-1.42-2.44-2.51-4.77-2.29-7.76a99.61,99.61,0,0,1,4.06-20.21,62.35,62.35,0,0,0,1.18-7.56,30.78,30.78,0,0,0,1.24-5.12c.57-7.12.69-14.27,1.49-21.36.55-4.7,2-9.32,3-14,.66-3,1.28-6,1.92-9a4.61,4.61,0,0,0,.13-.46v-.06c-.19-7.49-.39-15-.58-22.57-5.18.5-11.61,7.68-11.2,12.42.14,1.75.8,3.52-1.8,4.86-1.63.84-.28,2.37,2.66,3,3.07,8.13-.94,12.87-7.35,15.62-3.15,1.34-6.5,2.61-10.09.83s-3.28-4.49-3-6.59c-1.53-1.11-3.71-2-3.64-2.74.22-2,2.19-2.55,4.72-2.13a3.13,3.13,0,0,0,2.26-.53c6.17-6.08,12.92-11.89,15.24-19.87a63.48,63.48,0,0,0,1.52-6.45c.32-1.85-1.07-2.83-3.21-2.48-2.65.44-5.57.86-7.7,2-4.69,2.56-8.87,5.66-13.42,8.37-2.81,1.67-5.92,3-8.9,4.52l-1.2-.81a8,8,0,0,1,1-2.65A10,10,0,0,1,13,176.24c5-2.91,10.11-5.74,15.05-8.71a14.6,14.6,0,0,0,3.7-3.26c.95-1.2,2.15-2.63.09-4s-4.3-1.83-6.45-.51c-1,.6-1.91,1.27-2.83,2s-1.83,1.39-2.75,2.05a16,16,0,0,1-1.57.87c-3-2.26-2.53-4.23,1.71-7.45l1,3a5.22,5.22,0,0,0,1.05-.38c-.1-5,4.91-8.22,6.51-12.64.51-1.42,2-2.58,3.47-4.32a14.46,14.46,0,0,1,1.51,1.82c.22.36-.09.88,0,1.31.25,1.14.56,2.29.85,3.44l4.07-2.5a9.22,9.22,0,0,1,6.88,2.62,6,6,0,0,0,1.86.83,4.61,4.61,0,0,0,.43-1.57c0-.15,0-.3-.05-.44-.32-2.21-1.62-3.91-4.14-5.35-1.81-1-2.85-2.88-4.33-4.31-.79-.75-1.77-1.38-3.08-2.39.36-1.21,1.28-2.87,1.24-4.55,0-1.4-1.25-2.82-2.09-4.54l2.19-.74c-.33-.63-.66-1.26-1-2,2.62-.88,5-2.52,7.53.25A2.92,2.92,0,0,0,46,125c3.13-1,5.69-.58,8,2.12-2.37-2.88-1.16-5.09.24-7.42.42-.7-.3-2-.74-2.89a4.23,4.23,0,0,1,1-5.42,7.15,7.15,0,0,1,1.35,1c2.25,3.3,3.87,3.89,8,2.47.85-.29,1.35-1.4,1.75-2.22,1.61-3.32,4.28-4,8.55-2-.34.48-.87.94-1,1.47a1.48,1.48,0,0,0,.58,1.35,2.44,2.44,0,0,0,1.82.07,1.51,1.51,0,0,0,.56-1.33,15.78,15.78,0,0,0-.64-4.08,3.18,3.18,0,0,0-1.91-1.78,34.65,34.65,0,0,0-8-1.37c-3.09,0-6.11.88-9.22,1.09-3.72.23-4.95-1-4.29-3.84.49-2.12.79-4.26-1.32-6a21.38,21.38,0,0,0-3.55-1.8l.48-1.21L45,92.26l.66-.37c-.78-1-1.54-2-2.64-3.52.62-2.37,1.43-5.38,2.12-8a27.49,27.49,0,0,0,3.61-2.6c1.83-1.83,7.89-3,11-2,3.57,1.18,6.08-.17,5.6-3.15a115.31,115.31,0,0,0-2.59-13.71c-.12-.42-.26-.84-.43-1.27-1.11-2.95-2.94-5.78-4.2-8.71a32.89,32.89,0,0,1-2.44-7.44,15.55,15.55,0,0,0-5.13-9.75c-2.39-2.1-2.65-4.37-2-7.16s-.07-5.75-.77-8.56c-.76-3-2.42-6-3.21-9a4.46,4.46,0,0,1,1.11-3.83c1.8-1.92,4.31-1.68,5.4.59a69.24,69.24,0,0,1,4.05,10.74C56.34,18.81,57.5,23,61,26.72c1.23,1.33,1.4,3.33,1.76,5.05.9,4.19,1.74,8.39,2.35,12.59a37.44,37.44,0,0,1-.07,5.7c0,2.41-.68,5,.13,7.21,1.61,4.46,3.79,8.79,3.53,13.52a6.78,6.78,0,0,0,1.1,3.32c1.7,3,3.4,6.09,5.38,9a27.11,27.11,0,0,0,5,5.77,10.24,10.24,0,0,0,12.9.27,4.43,4.43,0,0,0,1.21-2.81c.94-6.32,1.77-12.66,2.64-19l1,.06c.07.55.35,1.15.18,1.64-2,5.5.92,10.52,3.61,15.42.61,1.08,3.67,1.57,5.69,1.93.64.11,1.82-1,2.37-1.68,1.53-2,2.87-4.11,4.29-6.17l.72.34c-.86,2.16-1.81,4.29-2.5,6.48a5.27,5.27,0,0,0,.3,2.63c.33,1.27.77,2.52,1.41,4.57L122.51,96c.89-3.52,3-6.94-1.24-10.41-1.8-1.48-1.36-5.77-.21-7.88.07-.13.15-.25.22-.36a10.28,10.28,0,0,1,9.38-4.7c2.66.06,5.33.86,8,1.31.86.15,1.72.26,2.82.43-2.76,2.17.56,4.48.87,6.92.12.85.64,2,.16,2.51-1.17,1.21-1,2.18-.37,3.55.28.64-.9,1.65-1.6,2.79-1-.85-1.61-1.33-2-1.64-2.16.67-4.13,1.75-6.18,1.79-2.51,0-2.73,1-3.3,2.47a62,62,0,0,1-3.47,6.38l2.65-.52q.21.33.39.66a13.72,13.72,0,0,0-3,1.31c-1,.78-2.2,1.81-2.22,2.78-.06,2.25,2.18,3.52,4.64,4.12.8.19,2-.73,3-1.2.22-.1.34-.63.4-.62,4.38,1,3.37-2.46,5-3.7" transform="translate(0 59.32)"/><path class="cls-34" d="M157.35,184.59c-1,1.32-2.5,2.29-2.35,3.14.17,1.05,1.52,2.13,2.62,3a5.18,5.18,0,0,0,2.62.55c.87,0,1.74-.33,2.61-.3,1.77.06,3.53.28,6,.48-1.93,3,1,4.09,3.08,5.73a32.29,32.29,0,0,1,5.13,5.67c1.55,2,3.33,4,4.09,6.18s.62,4.82.58,7.24c0,.37-1.63,1.09-2.3,1-2.89-.61-5.7-1.48-8.87-2.34,1.6-3.25-1.56-5.15-4.17-7.26a11.36,11.36,0,0,1-2.23-2.06c-3.2-4.65-8.73-4-13.84-4.14-.62,0-1.48,1.08-1.77,1.78-1.55,3.64-2.8,5.08-5.87,6.76a29.12,29.12,0,0,1-16.29-3.77c-2.66,3.66-2.07,7.08,1.86,10.1-1.81.23-3.86,0-4.8.74s-.94,2.36-1.27,3.61c-1.38,5.21-2.73,10.43-4.09,15.65a36.69,36.69,0,0,0-1,14.9,54.84,54.84,0,0,1-1.38,22.75c-1.38,5.26-1.53,10.8-1.75,16.25-.26,6.3.84,12.77-.21,19s1.26,12.47.59,18.69c-.14,1.37.74,2.93,1.51,4.29,3.16,5.66,1.21,12.62-4.67,16.18-4.51,2.74-7.13,2.13-9.94-1.89-2.54-3.65-1.42-7.05-.16-10.52,0-.09.14-.15.15-.24.39-6.86,6.28-12.92,3.44-20.33-.71-1.82.18-4,.44-6,.29-2.22,1.31-4.48.94-6.66-1-5.6,1.43-10.52,3.31-15.6a9.49,9.49,0,0,0,.1-4c-.25-3.58-.79-7.16-.85-10.74-.07-4.55,2.2-8.92.7-13.61-1-3.23-2.08-6.57-2.07-9.82a15.18,15.18,0,0,1,2.42-8.5,44.6,44.6,0,0,0,7.77-20.92,44.75,44.75,0,0,1,1.08-4.93c1.43-6.18,1.72-12.36-1.22-18.5-.26-.54-1-1-1.45-1.45a13.71,13.71,0,0,1-1,1.61c-.59.69-1.29,1.31-2,2-.58-.56-1.6-1.1-1.68-1.68a2.19,2.19,0,0,0-2.16-2.07,21.57,21.57,0,0,0-2.83-.11c.6,3.34,1.16,6.51,1.76,9.67.18,1,.9,2,.6,2.84-.4,1.13-1.56,2.07-2.39,3.08-1.07-1-2.61-1.82-3.07-2.93s.16-2.61,0-3.92c-.45-4-.48-8.15-1.77-12a28.62,28.62,0,0,0-3.38-6.47c-.81-1.27-1.66-2.53-2.45-3.79a3.91,3.91,0,0,0-2.31-1.15C91,179.22,90.77,178,91.55,177a43,43,0,0,1,4.68-4.38c6.31,3.2,2.91,7.47,3.61,11.38.2-.74.4-1.48.61-2.22s.43-1.48.87-3c.45,1.51.43,2.39,1,2.9a4.8,4.8,0,0,0,2.28.34c.59-2.48,3-3.14,5.54-4.06,1.65-.58,2.5-2.48,4.14-4.25,5.78,4.28,11.31,8.58,14.63,14.46-1.58-3.14-.67-6.52-3.37-9.51-1.79-2-2.2-4.86-2.67-7.39-.34-1.87,2-2.47,4.65-1.6s5.45,1.51,8.19,2.26c.12-.28.25-.55.38-.83l-4.32-1.53,2.16-1.71-1-.13c0-1.46-.83-3.37,0-4.27,2-2.13,4.75-1,7.17.66.3-1.44.55-2.56.69-3.25L139,158a9.69,9.69,0,0,0,2.84-.71c1.4-.9,3.54-.45,4.64-2.22,2-3.27,6.36-3.46,10.17-1.19,4.33,2.57,6.6,6.17,6.77,10,.1,2.08-1,5-5.73,5.91.45.1.89.22,1.31.33,6.42,1.73,10.1,4.68,10.3,10l-3.07,2.29,4.54,2.13c-.36.43-.51.71-.58.71-4.1-.89-8.42-.28-12.52-1.37a13,13,0,0,1-1.79-.6c-2.27-.93-4.07-1.83-4.21-4.08a3.71,3.71,0,0,0-1.3-2.69,9.07,9.07,0,0,1-4.06-8.49l5.29,5.61c1.69-1,3.38-1.94,5.8-3.31l-.85-.19c-4.18-.92-8-1.59-9-4.88l-6.28,0c3.77,2.17,2.47,5.27,2.76,8.22a22.48,22.48,0,0,0,2.27,8.46c.88,1.67,3.41,2.91,5.43,4.09.48.28,1.9-.49,2.9-.76C155.32,185.07,156.1,184.89,157.35,184.59Z" transform="translate(0 59.32)"/><line class="cls-34" x1="104.87" y1="195.79" x2="104.77" y2="195.68"/><path class="cls-34" d="M65.77,163.33h0c.88.55,1.75,1.11,2.64,1.68a13.54,13.54,0,0,1-2.32,1.54,2.69,2.69,0,0,1-1.49-.73,15.62,15.62,0,0,1,1.17-2.49h0a1.21,1.21,0,0,1,.09-.2" transform="translate(0 59.32)"/><path class="cls-34" d="M136.54,101.83s0,0,0,0" transform="translate(0 59.32)"/><line class="cls-34" x1="136.51" y1="161.13" x2="136.52" y2="161.13"/><line class="cls-34" x1="136.52" y1="161.13" x2="136.52" y2="161.13"/><line class="cls-34" x1="136.52" y1="161.13" x2="136.53" y2="161.14"/><path class="cls-34" d="M136.53,101.82a0,0,0,0,1,0,0" transform="translate(0 59.32)"/></g><path d="M165.82,207.93c4.11,2.35,4.23,3.74-.1,6.31-2.18,1.29-4.33,2.64-6.5,3.95a5.91,5.91,0,0,1-1.16.24c-.53-1.2-1.08-2.5-1.65-3.79l2.49,2.71c2.41-1.5,5.24-2.72,7.2-4.73C166.94,211.76,165.94,209.25,165.82,207.93Z" transform="translate(0 59.32)"/><path class="cls-35" d="M165.82,207.93c.12,1.32,1.12,3.83.28,4.69-2,2-4.79,3.23-7.2,4.73l-2.49-2.71-.07-.15-.06-.09c0-.29.08-.61-.05-.8q-7.29-10-14.63-20a6.7,6.7,0,0,0-1.34-1c2.54,1.45,5.34-.56,7,.63C152.3,196.89,160.81,204.14,165.82,207.93Z" transform="translate(0 59.32)"/><path d="M156.41,214.64l-.13-.14h.06Z" transform="translate(0 59.32)"/><path d="M156.34,214.49h-.06v-.1Z" transform="translate(0 59.32)"/><path d="M156.23,213.6c.13.19.06.51.05.8-4.11-5.6-8.2-11.21-12.34-16.79a50.17,50.17,0,0,1-3.68-5.06,6.7,6.7,0,0,1,1.34,1Q149,203.57,156.23,213.6Z" transform="translate(0 59.32)"/><path d="M167.91,172.5a5.41,5.41,0,0,1-.41,1.06l-4.07-1.15,3.6-.2c0-2.83.54-5.81-.1-8.63-.27-1.19-2.92-2-4.1-2.79,4.19-1.68,5.42-.88,5.26,4.13C168,167.45,168,170,167.91,172.5Z" transform="translate(0 59.32)"/><path d="M129.39,222.93l-2.43.42,0,0-.16,0c-.31-1-.34-2.28-1-3.09-2.13-2.65-4.52-5.11-6.73-7.7a8.08,8.08,0,0,1-.93-2C121.77,214.54,125.36,218.48,129.39,222.93Z" transform="translate(0 59.32)"/><path d="M127,223.33l0,0h0Z" transform="translate(0 59.32)"/><path d="M127,223.33l-.08,0h-.08Z" transform="translate(0 59.32)"/><path d="M126.92,223.36h0c-3,1.29-6.08,2.59-9.13,3.86-1.59.66-2.09,0-1.83-1.51a16.92,16.92,0,0,0,3.43-.14C122,224.94,124.42,224.11,126.92,223.36Z" transform="translate(0 59.32)"/><path class="cls-36" d="M126.84,223.37h.08c-2.5.75-5,1.58-7.49,2.2a16.92,16.92,0,0,1-3.43.14c-1.51-3.66-3.06-7.3-4.5-11a9.77,9.77,0,0,1-1-3.87c.06-1.22.65-3.19,1.42-3.34,1.24-.24,2.87.62,4.22,1.26a9.41,9.41,0,0,1,2,1.82,8.08,8.08,0,0,0,.93,2c2.21,2.59,4.6,5,6.73,7.7C126.5,221.09,126.53,222.33,126.84,223.37Z" transform="translate(0 59.32)"/><path d="M165.82,207.93c-5-3.79-13.52-11-18.6-14.75-1.62-1.19-4.42.82-7-.63,1.25.14,3.44-2.93,4.13-2.42C150.57,194.66,160.19,202.73,165.82,207.93Z" transform="translate(0 59.32)"/><path class="cls-37" d="M166.93,163.58c.64,2.82.14,5.8.1,8.63l-3.6.2-.18-.06,0,.07-.46,0c-5.62-1.88-11.43,0-17.55-1.76l0-.14c-.07-1-.38-2.89-.61-4.45V166l-.31-2.2,0-.19,18-2.81.54,0C164,161.55,166.66,162.39,166.93,163.58Z" transform="translate(0 59.32)"/><path d="M163.43,172.41h-.21l0-.07Z" transform="translate(0 59.32)"/><path d="M162.76,172.45l-7-.17c-2.74-.06-5.47,0-8.21-.25-.9-.09-1.79-.95-2.68-1.45l.35.11C151.33,172.48,157.14,170.57,162.76,172.45Z" transform="translate(0 59.32)"/><path d="M162.29,160.83l-18,2.81-.73.12A61.56,61.56,0,0,1,162.29,160.83Z" transform="translate(0 59.32)"/><path class="cls-38" d="M130.71,154.49c12.82,14.81,8.19,34.38-9.57,41-3.86,1.44-8,2.26-12,3.37-9.9,2.72-16.41,8.87-19.91,18-1.37,3.62-2.1,3.93-6.7,2.21a139.19,139.19,0,0,1,20.66-37,24.16,24.16,0,0,0,1.61-2c2.21-3.46,4.88-5.71,9.83-5.11,2.13.26,4.62-1,6.51-2.12a4.3,4.3,0,0,0,.48-6.7c-2.2-2-4.33-1.82-6.31.14-1.54,1.53-3.47,2.77-4.76,4.47-1.6,2.14-3.51,2.66-6.14,2-3.62-.87-7.26-1.6-10.88-2.44s-6.75-1.84-8.72-5.5a5.16,5.16,0,0,0-6.53-2.57c-1,.43-1.79,2.5-1.59,3.73.49,3,3,4.09,5.93,4.22,1,0,2.05,0,3,0,5.49,9.64-.51,32.4-11.47,43.63-2.56-1.41-2.88-3.1-1.44-5.38a45.78,45.78,0,0,0,2.75-5.52c3.22-6.9,3.1-13.93-.54-21.1-1.09-2.13-2.13-4.28-3.16-6.44-2.51-5.25-3.43-10.82-1.1-15.78a70.15,70.15,0,0,1,9.88-15.88c4.71-5.52,11.68-7.42,19.43-5.94C112,140.08,122.63,145.16,130.71,154.49Zm4.54,18.93.95-.41q-3.94-7.53-7.88-15.06l-.83.35Zm-58.53-19c3.58-6.93,9.75-11,17.1-13.72C86.1,141.09,77.93,147.72,76.72,154.43Z" transform="translate(0 59.32)"/><path class="cls-5" d="M145.24,170.55l-.61-4.45C144.86,167.66,145.17,169.53,145.24,170.55Z" transform="translate(0 59.32)"/><path d="M133,154.8c12.53,15.24,7.1,35.31-10.82,42.28A88.43,88.43,0,0,1,111.39,200c-8.46,2.13-15.15,6.45-19,14a4.91,4.91,0,0,0,.23,4c2.06,3.8,2,6.77-.66,10.06a5.71,5.71,0,0,0-1.17,2.56c-.59,4-4,6.69-5.24,10.53L85,241a5,5,0,0,0-.11-2.9c-11.36-1.9-21.81-5-27.73-15.91l.1-.12H57.1c.5-3.68.81-7.43,4.83-9.32.43-.2.45-1.14.64-1.75,1.3-4.37,4.11-5.48,8.86-3.2,3.66-7.25,6.71-14.54,3.41-23.14a27.32,27.32,0,0,0-2.33-4.92C65,168,67.83,157.63,75.06,147.89c4.89-6.58,11-12,20.2-11.59C110.36,136.9,123.37,143.16,133,154.8Zm-11.81,40.67c17.76-6.6,22.39-26.17,9.57-41-8.08-9.33-18.76-14.41-30.74-16.71-7.75-1.48-14.72.42-19.43,5.94a70.15,70.15,0,0,0-9.88,15.88c-2.33,5-1.41,10.53,1.1,15.78,1,2.16,2.07,4.31,3.16,6.44,3.64,7.17,3.76,14.2.54,21.1a45.78,45.78,0,0,1-2.75,5.52c-1.44,2.28-1.12,4,1.44,5.38,11-11.23,17-34,11.47-43.63-1,0-2,.08-3,0-2.93-.13-5.44-1.19-5.93-4.22-.2-1.23.6-3.3,1.59-3.73a5.16,5.16,0,0,1,6.53,2.57c2,3.66,5.18,4.68,8.72,5.5s7.26,1.57,10.88,2.44c2.63.64,4.54.12,6.14-2,1.29-1.7,3.22-2.94,4.76-4.47,2-2,4.11-2.17,6.31-.14a4.3,4.3,0,0,1-.48,6.7c-1.89,1.16-4.38,2.38-6.51,2.12-5-.6-7.62,1.65-9.83,5.11a24.16,24.16,0,0,1-1.61,2,139.19,139.19,0,0,0-20.66,37c4.6,1.72,5.33,1.41,6.7-2.21,3.5-9.17,10-15.32,19.91-18C113.14,197.73,117.28,196.91,121.14,195.47ZM81.38,236.14c5.39.86,7.64-1.16,8.08-5.58-5.6-1.88-11-3.23-16-5.51s-9.17-6-11.17-11.44c-4.87,4.36-4.75,9.8.14,14.18C67.83,232.63,74.43,235,81.38,236.14Zm3.2-8.1c2.88.72,5.82.72,7.33-1.76s1.41-5.39-1.2-8.52c-.78,4.09-3.62,4.09-6.41,3.53a21.15,21.15,0,0,1-12.25-7.54c-.73-.87-1.69-2-1.64-2.91.08-1.46.7-3.23-1.45-3.17a6.31,6.31,0,0,0-4.6,2.29c-1.93,3-.18,5.95,2,8.5C71.17,224,77.75,226.31,84.58,228Zm36.48-58.37c.36-.44-.33-2.37-1-2.74a3.76,3.76,0,0,0-3.34,0,87.58,87.58,0,0,0-6.33,6.74c2.75-.15,4.84.16,6.46-.48A11,11,0,0,0,121.06,169.67ZM75.34,215.46l5.58,3.35c6.08-16.37,15-30.5,25.62-43.75L88,170.32C92.2,187.92,85.33,202.09,75.34,215.46Zm9.81-47c-.8-2.6-2.11-4.75-5.21-4.79-.66,0-1.8,1.59-1.71,2.42C78.45,168.29,81.46,169.28,85.15,168.44Z" transform="translate(0 59.32)"/><path d="M85.17,242.84c-.16,1.3-3.5,2.89-5.49,2.9-9.49,0-18-3.17-24.45-10.51-4.32-4.93-3.13-11,1.89-13.07l0,.06c-5,5.9-4.31,11.39,2.86,16a58.25,58.25,0,0,0,12.67,5.59,18.25,18.25,0,0,0,7.43.64c2.67-.24,4.36-1.6,4.88-3.43l.52.17A8.68,8.68,0,0,0,85.17,242.84Z" transform="translate(0 59.32)"/><path class="cls-39" d="M85,241c-.52,1.83-2.21,3.19-4.88,3.43a18.25,18.25,0,0,1-7.43-.64A58.25,58.25,0,0,1,60,238.23c-7.17-4.62-7.9-10.11-2.86-16,5.92,10.94,16.37,14,27.73,15.91A5,5,0,0,1,85,241Z" transform="translate(0 59.32)"/><path class="cls-5" d="M144.31,163.83l.31,2.2C144.46,165.09,144.34,164.27,144.31,163.83Z" transform="translate(0 59.32)"/><path d="M136.2,173l-.95.41-7.76-15.12.83-.35Q132.26,165.47,136.2,173Z" transform="translate(0 59.32)"/><path class="cls-39" d="M89.46,230.56C89,235,86.77,237,81.38,236.14c-6.95-1.11-13.55-3.51-18.95-8.35-4.89-4.38-5-9.82-.14-14.18,2,5.45,6.12,9.16,11.17,11.44S83.86,228.68,89.46,230.56Z" transform="translate(0 59.32)"/><path class="cls-39" d="M91.91,226.28c-1.51,2.48-4.45,2.48-7.33,1.76-6.83-1.73-13.41-4-18.2-9.58-2.2-2.55-3.95-5.51-2-8.5a6.31,6.31,0,0,1,4.6-2.29c2.15-.06,1.53,1.71,1.45,3.17,0,.91.91,2,1.64,2.91a21.15,21.15,0,0,0,12.25,7.54c2.79.56,5.63.56,6.41-3.53C93.32,220.89,93.42,223.82,91.91,226.28Z" transform="translate(0 59.32)"/><path class="cls-38" d="M120,166.93c.69.37,1.38,2.3,1,2.74a11,11,0,0,1-4.23,3.52c-1.62.64-3.71.33-6.46.48a87.58,87.58,0,0,1,6.33-6.74A3.76,3.76,0,0,1,120,166.93Z" transform="translate(0 59.32)"/><path class="cls-38" d="M80.92,218.81l-5.58-3.35c10-13.37,16.86-27.54,12.61-45.14l18.59,4.74C95.89,188.31,87,202.44,80.92,218.81Z" transform="translate(0 59.32)"/><path class="cls-40" d="M139.48,117.69c4.42,4.18,5.8,3.86,1,8.71-1.53,1.54-2.73,3.38-4.2,5-2.75,3-5.59,6-8.53,9.08l-5.15-3.89s-1.4-.24-1.53-.08l-1-1a108.83,108.83,0,0,0,12.16-19l.19-.71,2.23-2.32C136.33,115,138,116.26,139.48,117.69Z" transform="translate(0 59.32)"/><path d="M140.45,126.4c4.83-4.85,3.45-4.53-1-8.71-1.51-1.43-3.15-2.72-4.9-4.22l-2.23,2.32c.64-1.73,1-2.71,1.53-4.18,3.87,3.49,7.44,6.7,11.52,10.39-5.83,6.66-11.49,13.12-17.35,19.79-1.66-1.37-5.85-4.33-7-5.3.13-.16,1.53.08,1.53.08l5.15,3.89c2.94-3.11,5.78-6.06,8.53-9.08C137.72,129.78,138.92,127.94,140.45,126.4Z" transform="translate(0 59.32)"/><path class="cls-5" d="M57.26,222.1l-.1.12,0-.06h0Z" transform="translate(0 59.32)"/><path class="cls-5" d="M57.26,222.1l-.13.06,0,0Z" transform="translate(0 59.32)"/><path d="M132.16,116.5a108.83,108.83,0,0,1-12.16,19Z" transform="translate(0 59.32)"/><path d="M64.59,188.05a.38.38,0,0,1-.26.19,1.65,1.65,0,0,1-.34-.08l.05-.07-.07,0c-.79-1.3-.49-3.49-3.21-3.08-5.92.9-11.88,1.68-18.15,2.56l4.2,10.87,3.12-1.87,14-8.48h0L46.56,200.4l-5.41-13.69,24-3.09C64.93,185.27,64.77,186.66,64.59,188.05Z" transform="translate(0 59.32)"/><path class="cls-38" d="M79.94,163.65c3.1,0,4.41,2.19,5.21,4.79-3.69.84-6.7-.15-6.92-2.37C78.14,165.24,79.28,163.65,79.94,163.65Z" transform="translate(0 59.32)"/><path class="cls-5" d="M64,188.09l-.05.07s0,0,0,0Z" transform="translate(0 59.32)"/><path class="cls-5" d="M64,188.09l-.06,0h0Z" transform="translate(0 59.32)"/><path class="cls-36" d="M64,188.14l-14,8.48-3.12,1.87-4.2-10.87c6.27-.88,12.23-1.66,18.15-2.56C63.48,184.65,63.18,186.84,64,188.14Z" transform="translate(0 59.32)"/><path d="M93.82,140.71c-7.35,2.73-13.52,6.79-17.1,13.72C77.93,147.72,86.1,141.09,93.82,140.71Z" transform="translate(0 59.32)"/><path d="M90.42,129.93c-2,.43-3.77.89-5.62,1.18-.29,0-.75-.65-1.13-1l5.52-.77c-3.1-9.14-6.08-18-9.18-27.1-2.61,1.31-5.22,2.45-7.64,3.87-2.91,1.71-.11,3.88.11,5.85-4.07-4.26-4-4.86.94-7.36,2.26-1.15,4.48-2.36,7.07-3.72C83.8,110.56,87,120.06,90.42,129.93Z" transform="translate(0 59.32)"/><path class="cls-41" d="M89.19,129.34l-5.52.77L72.48,112c-.22-2-3-4.14-.11-5.85,2.42-1.42,5-2.56,7.64-3.87C83.11,111.39,86.09,120.2,89.19,129.34Z" transform="translate(0 59.32)"/><path d="M58.92,155.44c3.42,2.2,0,3.67-.52,5.51l-25.46-6.66c1.32-3.91,2.72-8,4.21-12.42C44.68,146.54,51.85,150.9,58.92,155.44Zm-3.86,3.83c1,.26,2.21-.39,3.33-.61-.54-1.19-.79-2.66-1.69-3.51a30.73,30.73,0,0,0-4.7-3l-14.33-9c-1.24,3.71-2.32,7-3.42,10.3C41.46,155.52,48.23,157.49,55.06,159.27Z" transform="translate(0 59.32)"/><path class="cls-42" d="M58.39,158.66c-1.12.22-2.32.87-3.33.61-6.83-1.78-13.6-3.75-20.81-5.78,1.1-3.32,2.18-6.59,3.42-10.3l14.33,9a30.73,30.73,0,0,1,4.7,3C57.6,156,57.85,157.47,58.39,158.66Z" transform="translate(0 59.32)"/><path class="cls-43" d="M83.67,130.11,72.48,112" transform="translate(0 59.32)"/><path class="cls-43" d="M116,225.7c-1.51-3.66-3.06-7.3-4.5-11a9.77,9.77,0,0,1-1-3.87c.06-1.22.65-3.19,1.42-3.34,1.24-.24,2.87.62,4.22,1.26a9.41,9.41,0,0,1,2,1.82" transform="translate(0 59.32)"/><path class="cls-43" d="M144.62,166c-.16-.94-.28-1.76-.31-2.2" transform="translate(0 59.32)"/><path class="cls-43" d="M145.24,170.55c-.07-1-.38-2.89-.61-4.45" transform="translate(0 59.32)"/><line class="cls-43" x1="144.62" y1="225.35" x2="144.63" y2="225.42"/><path class="cls-5" d="M262.52,208.68a26.4,26.4,0,0,0-1.61,12.06c.22,2.89.67,5.79,1,8.68a1.55,1.55,0,0,1-.26,1,8.62,8.62,0,0,0,3.51,13.4,1.19,1.19,0,0,1,.59.74c.93,6.67,1,13.27-.87,19.53-1,3.4-2.49,6.58-3.79,9.85-.54,1.36-.55,1.58.78,2,2.61.89,5.26,1.61,7.9,2.42,2.12.65,3.73-.17,5-1.86a15.58,15.58,0,0,0,1.18-1.7c2.6-4.59,3-9.75,1.83-15.17a99.06,99.06,0,0,0-5.69-17.55,1.63,1.63,0,0,1,0-1.23,8,8,0,0,0-3.27-11.43,1.5,1.5,0,0,1-.7-.9c-.34-2.25-.65-4.5-.89-6.76-.69-6.57,1-12,5.43-16,2.42-2.22,4.81-4.48,7.32-6.57,3.67-3.07,7.4-6,11.16-9q6.82-5.31,13.75-10.46a3.31,3.31,0,0,1,2.35-.42,3.41,3.41,0,0,1,2.54,2.84A3.59,3.59,0,0,1,308.3,186c-10.15,7.27-19.68,15.5-29.42,23.42-.32.25-.61.55-1,.93.34.07.51.12.68.14q17.81,1.94,35.6,3.84a3,3,0,0,0,1.9-.53q14.16-10,28.28-20.17,12.94-9.26,25.9-18.53a4.29,4.29,0,0,0,1.4-1.41,3.1,3.1,0,0,0-2.37-4.49q-11-1.26-22-2.47-22.05-2.47-44.11-5a4.17,4.17,0,0,0-3.09.74q-21,15.08-42,30.08l-12.18,8.71a3,3,0,0,0-1,3.72,2.92,2.92,0,0,0,2.56,1.88C252.43,207.47,257.41,208.07,262.52,208.68Zm19.14,35.13a15.5,15.5,0,0,0,1.76,1.06,54.13,54.13,0,0,0,6.88,2.74c8.05,2.11,16,1.75,24,.57a88.51,88.51,0,0,0,18-4.69,65.4,65.4,0,0,0,18.38-10.05,26.32,26.32,0,0,0,7.68-9,11.26,11.26,0,0,0,.73-8.15c-1.7-6.21-3.26-12.45-4.88-18.68-.09-.34-.21-.67-.34-1.08-.4.27-.7.46-1,.67q-16.45,11.73-32.9,23.46a8.31,8.31,0,0,1-6,1.57l-32.8-3.73-7.21-.81a23.7,23.7,0,0,0,1.11,8.3,1.09,1.09,0,0,0,.6.54c5.08,1.95,9.12,10,6.34,16.38C281.94,243.1,281.85,243.34,281.66,243.81Z" transform="translate(0 59.32)"/><path d="M262.52,208.68c-5.11-.61-10.09-1.21-15.08-1.79a2.92,2.92,0,0,1-2.56-1.88,3,3,0,0,1,1-3.72l12.18-8.71q21-15,42-30.08a4.17,4.17,0,0,1,3.09-.74q22.07,2.51,44.11,5,11,1.23,22,2.47a3.1,3.1,0,0,1,2.37,4.49,4.29,4.29,0,0,1-1.4,1.41q-12.94,9.28-25.9,18.53-14.15,10.09-28.28,20.17a3,3,0,0,1-1.9.53q-17.81-1.87-35.6-3.84c-.17,0-.34-.07-.68-.14.4-.38.69-.68,1-.93,9.74-7.92,19.27-16.15,29.42-23.42a3.59,3.59,0,0,0,1.53-3.78,3.41,3.41,0,0,0-2.54-2.84,3.31,3.31,0,0,0-2.35.42q-6.94,5.13-13.75,10.46c-3.76,2.93-7.49,5.91-11.16,9-2.51,2.09-4.9,4.35-7.32,6.57-4.41,4-6.12,9.45-5.43,16,.24,2.26.55,4.51.89,6.76a1.5,1.5,0,0,0,.7.9,8,8,0,0,1,3.27,11.43,1.63,1.63,0,0,0,0,1.23,99.06,99.06,0,0,1,5.69,17.55c1.16,5.42.77,10.58-1.83,15.17a15.58,15.58,0,0,1-1.18,1.7c-1.31,1.69-2.92,2.51-5,1.86-2.64-.81-5.29-1.53-7.9-2.42-1.33-.45-1.32-.67-.78-2,1.3-3.27,2.79-6.45,3.79-9.85,1.85-6.26,1.8-12.86.87-19.53a1.19,1.19,0,0,0-.59-.74,8.62,8.62,0,0,1-3.51-13.4,1.55,1.55,0,0,0,.26-1c-.32-2.89-.77-5.79-1-8.68A26.4,26.4,0,0,1,262.52,208.68Z" transform="translate(0 59.32)"/><path d="M281.66,243.81c.19-.47.28-.71.38-.94,2.78-6.39-1.26-14.43-6.34-16.38a1.09,1.09,0,0,1-.6-.54,23.7,23.7,0,0,1-1.11-8.3l7.21.81,32.8,3.73a8.31,8.31,0,0,0,6-1.57q16.44-11.75,32.9-23.46c.29-.21.59-.4,1-.67.13.41.25.74.34,1.08,1.62,6.23,3.18,12.47,4.88,18.68a11.26,11.26,0,0,1-.73,8.15,26.32,26.32,0,0,1-7.68,9,65.4,65.4,0,0,1-18.38,10.05,88.51,88.51,0,0,1-18,4.69c-7.92,1.18-15.91,1.54-24-.57a54.13,54.13,0,0,1-6.88-2.74A15.5,15.5,0,0,1,281.66,243.81Z" transform="translate(0 59.32)"/></svg>