<svg id="Layer_1" data-name="Layer 1" xmlns="http://www.w3.org/2000/svg" viewBox="0 0 315.66 237.6"><defs><style>.cls-1{fill:#ffd023;}.cls-2{fill:#e5e5e5;}</style></defs><path class="cls-1" d="M267,358.72c-7.16,11.11-11.71,23.38-15.79,35.83-8.55,26.07-13.66,52.9-17.22,80.05-1.7,13-5.71,25.1-14.6,35.06-13.42,15-30.39,13.91-43.19,8.81a39.29,39.29,0,0,1-23.37-26.78c-2.27-8.89-2.67-19.14-1.9-41.33,0-1,.1-2,.2-2.93,4.61-43.23,16.37-73.9,42.66-103.47,16.73-18.83,35.79-34.8,58.79-45.58,10.13-4.76,20.72-8.05,32-8.45,20-.71,34.81,8.09,44.76,25.24C336.84,328,340.15,342.22,342,356.8a56.61,56.61,0,0,1,.81,11.18c-1-.87-1.12-2.18-1.53-3.33A63.29,63.29,0,0,0,328,342c-9.35-10-22.22-13.68-35-8.83C280.77,337.84,273.26,347.71,267,358.72Z" transform="translate(-150.59 -289.89)"/><path class="cls-1" d="M396.56,405.46c-4.38,4.85-7.41,10.6-10.53,16.26-11.62,21.11-21.36,43.18-32.7,64.44-5.34,10-11.3,19.67-17.5,29.2-5.46,8.38-13.23,12-22.74,12.13-27.54.23-55.63-25.38-45.95-61.49,1.33,1.32,2.66,2.63,4,4,6.38,6.36,12.71,7.08,20.13,2,9.2-6.26,15.25-15.35,21-24.53,6.31-10,12.25-20.26,18.23-30.48,4.59-7.84,9-15.78,13.49-23.68,3-4.27,6-8.55,9.06-12.81a101.31,101.31,0,0,1,9.85-11.75c21.38-22,54.14-11.84,65.4,9.33A74.88,74.88,0,0,1,436,402.55a211.07,211.07,0,0,1,1.8,38.84c-1.19-6.83-2.23-13.68-3.6-20.47-1.76-8.68-4.05-17.2-8.79-24.84-3.82-6.18-9.2-7.86-15.55-4.36A35,35,0,0,0,396.56,405.46Z" transform="translate(-150.59 -289.89)"/><path class="cls-2" d="M344,393.29c-4.49,7.9-8.9,15.84-13.49,23.68-6,10.22-11.92,20.46-18.23,30.48-5.77,9.18-11.82,18.27-21,24.53-7.42,5.06-13.75,4.34-20.13-2-1.32-1.33-2.65-2.64-4-4a310.7,310.7,0,0,0,4.2-67.13c-.61-13.46-1.68-26.89-4.32-40.15,6.24-11,13.75-20.88,26-25.55,12.74-4.85,25.61-1.21,35,8.83a63.29,63.29,0,0,1,13.29,22.65c.41,1.15.5,2.46,1.53,3.33C344.13,376.38,343.68,384.85,344,393.29Z" transform="translate(-150.59 -289.89)"/><path class="cls-2" d="M396.56,405.46a35,35,0,0,1,13.33-13.74c6.35-3.5,11.73-1.82,15.55,4.36,4.74,7.64,7,16.16,8.79,24.84,1.34,6.65,2.37,13.36,3.53,20a5.12,5.12,0,0,1,.08.87,212,212,0,0,0,8.41,55.62,82.59,82.59,0,0,0,3.12,9.47c4.44,10.84,11.51,7.22,16.88,1.47-13.31,29.06-42.2,13.1-50.07-1.23-6.08-11.06-8-23.27-9.68-35.52-2.68-19.64-3.93-39.48-8.25-58.89C397.7,410.32,397.12,407.89,396.56,405.46Z" transform="translate(-150.59 -289.89)"/></svg>